<?xml version="1.0" encoding="UTF-8" standalone="no"?>
<!-- Created with Inkscape (http://www.inkscape.org/) -->

<svg
   width="200mm"
   height="200mm"
   viewBox="0 0 200 200"
   version="1.1"
   id="svg1"
   inkscape:version="1.3.2 (091e20e, 2023-11-25, custom)"
   sodipodi:docname="backend.svg"
   xmlns:inkscape="http://www.inkscape.org/namespaces/inkscape"
   xmlns:sodipodi="http://sodipodi.sourceforge.net/DTD/sodipodi-0.dtd"
   xmlns="http://www.w3.org/2000/svg"
   xmlns:svg="http://www.w3.org/2000/svg">
  <sodipodi:namedview
     id="namedview1"
     pagecolor="#ffffff"
     bordercolor="#000000"
     borderopacity="0.25"
     inkscape:showpageshadow="2"
     inkscape:pageopacity="0.0"
     inkscape:pagecheckerboard="0"
     inkscape:deskcolor="#d1d1d1"
     inkscape:document-units="mm"
     inkscape:zoom="1.4627806"
     inkscape:cx="172.95827"
     inkscape:cy="372.23627"
     inkscape:window-width="1920"
     inkscape:window-height="1017"
     inkscape:window-x="-8"
     inkscape:window-y="-8"
     inkscape:window-maximized="1"
     inkscape:current-layer="rueda" />
  <defs
     id="defs1" />
  <g
     inkscape:label="Capa 1"
     inkscape:groupmode="layer"
     id="layer1"
     transform="matrix(1.3223324,0,0,1.3223324,-43.807685,-5.9511857)">
    <rect
       style="fill:#cfdee7;fill-opacity:1;stroke:#000000;stroke-width:6.15465;stroke-linecap:butt;stroke-linejoin:round;stroke-dasharray:none;stroke-opacity:1;paint-order:stroke markers fill"
       id="rect1"
       width="135.10182"
       height="110.45113"
       x="41.201168"
       y="34.421204"
       ry="1.7343259" />
    <rect
       style="fill:#e9633b;fill-opacity:1;stroke:#000000;stroke-width:5.14678;stroke-linecap:butt;stroke-linejoin:round;stroke-dasharray:none;stroke-opacity:1;paint-order:stroke markers fill"
       id="rect2"
       width="135.92168"
       height="19.592228"
       x="40.887196"
       y="14.872672"
       rx="2.9423022"
       ry="0" />
    <rect
       style="fill:#000000;fill-opacity:1;stroke:none;stroke-width:2.99722;stroke-linecap:butt;stroke-linejoin:bevel;stroke-dasharray:none;stroke-opacity:1;paint-order:fill markers stroke"
       id="rect3"
       width="35.502155"
       height="5.5207968"
       x="49.108646"
       y="21.782467"
       rx="0"
       ry="0" />
    <rect
       style="fill:#000000;fill-opacity:1;stroke:none;stroke-width:2.55604;stroke-linecap:butt;stroke-linejoin:bevel;stroke-dasharray:none;stroke-opacity:1;paint-order:fill markers stroke"
       id="rect4"
       width="5.4943814"
       height="5.4937491"
       x="138.20169"
       y="21.79586"
       rx="0"
       ry="0" />
    <rect
       style="fill:#000000;fill-opacity:1;stroke:none;stroke-width:2.55604;stroke-linecap:butt;stroke-linejoin:bevel;stroke-dasharray:none;stroke-opacity:1;paint-order:fill markers stroke"
       id="rect4-3"
       width="5.4943814"
       height="5.4937491"
       x="155.98972"
       y="21.801212"
       rx="0"
       ry="0" />
    <g
       id="rueda"
       transform="matrix(1.6522553,0,0,1.6522553,-70.300782,-48.164409)">
      <path
         id="path4"
         style="fill:#19405e;fill-opacity:1;stroke:#000000;stroke-width:2.29416;stroke-linecap:butt;stroke-linejoin:round;stroke-dasharray:none;stroke-opacity:1;paint-order:fill markers stroke"
         inkscape:transform-center-x="7.2099229"
         inkscape:transform-center-y="-1.8773999"
         d="m 102.76586,60.751837 c 0,0 0.87799,9.190325 -2.47398,10.387688 -3.248392,1.160364 -8.232957,-6.269364 -8.232957,-6.269364 l -6.210004,6.471796 c 0,0 6.358929,4.587128 5.31372,7.453863 -1.192101,3.26962 -10.110115,2.60562 -10.110115,2.60562 l -0.01761,7.534232 c 0,0 8.989364,-0.527763 10.221468,2.781341 0.986991,2.650794 -4.737001,7.040495 -4.737001,7.040495 l 5.458003,5.899932 c 0,0 4.948587,-6.124882 7.915196,-5.100002 2.98832,1.032382 3.10173,8.963382 3.10173,8.963382 l 7.10939,-0.0598 c 0,0 0.0456,-7.3787 2.8181,-8.33721 2.84538,-0.9837 7.55914,4.94308 7.55914,4.94308 l 5.36559,-4.77209 c 0,0 -4.96421,-5.851105 -3.45318,-8.515445 1.56274,-2.755513 9.39133,-1.455308 9.39133,-1.455308 l 0.27996,-8.085058 c 0,0 -8.75416,0.173973 -9.8103,-3.087517 -1.03891,-3.208272 6.03814,-8.117385 6.03814,-8.117385 l -6.7727,-6.171772 c 0,0 -4.79622,7.010123 -7.8997,5.917699 -3.25195,-1.144688 -2.56838,-10.018623 -2.56838,-10.018623 z"
         sodipodi:nodetypes="caccaccaccaccaccaccaccacc" />
      <circle
         style="fill:#cfdee7;fill-opacity:1;stroke:#000000;stroke-width:1.99209;stroke-linecap:butt;stroke-linejoin:round;stroke-dasharray:none;stroke-opacity:1;paint-order:fill markers stroke"
         id="path14"
         cx="106.42413"
         cy="84.912689"
         r="9.6994295" />
    </g>
  </g>
</svg>
