<?xml version="1.0" encoding="UTF-8" standalone="no"?>
<!-- Created with Inkscape (http://www.inkscape.org/) -->

<svg
   width="125mm"
   height="114mm"
   viewBox="0 0 125 114"
   version="1.1"
   id="svg1"
   xml:space="preserve"
   inkscape:version="1.3.2 (091e20e, 2023-11-25, custom)"
   sodipodi:docname="heart.svg"
   xmlns:inkscape="http://www.inkscape.org/namespaces/inkscape"
   xmlns:sodipodi="http://sodipodi.sourceforge.net/DTD/sodipodi-0.dtd"
   xmlns="http://www.w3.org/2000/svg"
   xmlns:svg="http://www.w3.org/2000/svg"><sodipodi:namedview
     id="namedview1"
     pagecolor="#ffffff"
     bordercolor="#000000"
     borderopacity="0.25"
     inkscape:showpageshadow="2"
     inkscape:pageopacity="0.0"
     inkscape:pagecheckerboard="0"
     inkscape:deskcolor="#d1d1d1"
     inkscape:document-units="mm"
     inkscape:zoom="0.51717104"
     inkscape:cx="404.12163"
     inkscape:cy="519.17061"
     inkscape:window-width="1920"
     inkscape:window-height="1017"
     inkscape:window-x="-8"
     inkscape:window-y="-8"
     inkscape:window-maximized="1"
     inkscape:current-layer="layer1" /><defs
     id="defs1" /><g
     inkscape:label="Capa 1"
     inkscape:groupmode="layer"
     id="layer1"><path
       d="M 57.884105,106.49417 C 55.226314,103.51549 48.589374,97.709031 43.135444,93.590371 26.976454,81.387391 24.777134,79.621251 18.216214,73.580161 6.1209043,62.442491 0.98419433,51.253106 1.0019443,36.080896 c 0.008,-7.40645 0.51327,-10.2599 2.58736,-14.62555 3.51915,-7.40685 8.7025497,-12.9105697 15.3296597,-16.2768887 4.69387,-2.38399 7.00877,-3.44332 14.84707,-3.48673 8.19932,-0.0453 9.92532,0.91075 14.74866,3.56044 5.87052,3.225079 11.912973,10.1178987 13.16217,15.0141787 l 0.77144,3.02402 1.90237,-4.16478 c 10.75078,-23.5355487 45.074526,-23.1833987 57.019136,0.58485 3.78929,7.53998 4.20531,23.63973 0.84535,32.708715 -4.38321,11.82999 -12.61553,20.84899 -31.646276,34.66973 -12.48065,9.06396 -26.60586,22.777789 -27.58898,24.703889 -1.14153,2.23617 -0.0546,0.3506 -5.095799,-5.2986 z"
       fill="#ff0000"
       id="path1"
       style="stroke-width:0.192958" /></g></svg>
