<?xml version="1.0" encoding="UTF-8" standalone="no"?>
<!-- Created with Inkscape (http://www.inkscape.org/) -->

<svg
   width="108mm"
   height="145mm"
   viewBox="0 0 108 145"
   version="1.1"
   id="svg1"
   inkscape:version="1.3.2 (091e20e, 2023-11-25, custom)"
   sodipodi:docname="interrogacion.svg"
   xmlns:inkscape="http://www.inkscape.org/namespaces/inkscape"
   xmlns:sodipodi="http://sodipodi.sourceforge.net/DTD/sodipodi-0.dtd"
   xmlns="http://www.w3.org/2000/svg"
   xmlns:svg="http://www.w3.org/2000/svg">
  <sodipodi:namedview
     id="namedview1"
     pagecolor="#ffffff"
     bordercolor="#000000"
     borderopacity="0.25"
     inkscape:showpageshadow="2"
     inkscape:pageopacity="0.0"
     inkscape:pagecheckerboard="0"
     inkscape:deskcolor="#d1d1d1"
     inkscape:document-units="mm"
     inkscape:zoom="0.73139029"
     inkscape:cx="396.50513"
     inkscape:cy="342.49839"
     inkscape:window-width="1920"
     inkscape:window-height="1017"
     inkscape:window-x="-8"
     inkscape:window-y="-8"
     inkscape:window-maximized="1"
     inkscape:current-layer="layer1" />
  <defs
     id="defs1" />
  <g
     inkscape:label="Capa 1"
     inkscape:groupmode="layer"
     id="layer1">
    <g
       id="g1">
      <path
         d="m 42.347588,93.500419 v -2.021367 q 0,-10.696402 1.85292,-16.844727 1.937144,-6.148325 5.55876,-9.769942 3.621616,-3.621616 8.759258,-6.822114 5.642984,-3.621617 9.517271,-7.917022 3.874287,-4.379629 3.874287,-10.527954 0,-6.569444 -4.463853,-10.443731 -4.463852,-3.874287 -10.864849,-3.874287 -6.148325,0 -11.033296,3.95851 -4.800747,3.958511 -5.137642,11.622862 H 16.154037 q 0.168448,-12.128203 5.642984,-20.129449 5.55876,-8.001245 14.654913,-11.8755324 9.180376,-3.9585108 20.213672,-3.9585108 12.128204,0 21.392803,4.0427345 9.2646,4.0427347 14.486466,11.6228617 5.306089,7.580127 5.306089,18.192305 0,10.696402 -5.053418,17.939635 -5.053418,7.159009 -13.728453,12.29665 -7.327456,4.379629 -10.780625,8.927706 -3.368946,4.463852 -3.368946,13.560005 v 2.021367 z m 11.370191,40.174671 q -6.569444,0 -10.780626,-3.95851 -4.211181,-3.95851 -4.211181,-10.27528 0,-6.401 4.211181,-10.35951 4.211182,-3.95851 10.780626,-3.95851 6.569443,0 10.696402,3.95851 4.211181,3.95851 4.211181,10.35951 0,6.31677 -4.211181,10.27528 -4.126959,3.95851 -10.696402,3.95851 z"
         id="text1"
         style="font-weight:bold;font-size:172.49px;line-height:6.2;font-family:inter;-inkscape-font-specification:'inter Bold';text-align:center;text-anchor:middle;stroke-width:4.97412;stroke-linejoin:bevel;paint-order:fill markers stroke"
         transform="scale(0.99340167,1.0066422)"
         aria-label="?"
         inkscape:label="text1" />
    </g>
  </g>
</svg>
