<?xml version="1.0" encoding="UTF-8" standalone="no"?>
<svg
   height="2500"
   preserveAspectRatio="xMidYMid"
   width="2261"
   viewBox="-165.83095323455666 -227.12219430273237 515.6590368124253 797.3960759087976"
   version="1.1"
   id="svg2"
   sodipodi:docname="jest.svg"
   inkscape:version="1.3.2 (091e20e, 2023-11-25, custom)"
   xmlns:inkscape="http://www.inkscape.org/namespaces/inkscape"
   xmlns:sodipodi="http://sodipodi.sourceforge.net/DTD/sodipodi-0.dtd"
   xmlns="http://www.w3.org/2000/svg"
   xmlns:svg="http://www.w3.org/2000/svg">
  <defs
     id="defs2" />
  <sodipodi:namedview
     id="namedview2"
     pagecolor="#ffffff"
     bordercolor="#000000"
     borderopacity="0.25"
     inkscape:showpageshadow="2"
     inkscape:pageopacity="0.0"
     inkscape:pagecheckerboard="0"
     inkscape:deskcolor="#d1d1d1"
     inkscape:zoom="0.11610693"
     inkscape:cx="-516.765"
     inkscape:cy="1373.7336"
     inkscape:window-width="1920"
     inkscape:window-height="1017"
     inkscape:window-x="-8"
     inkscape:window-y="-8"
     inkscape:window-maximized="1"
     inkscape:current-layer="svg2" />
  <path
     d="m 404.14159,164.50977 c 0,-40.61638 -32.92873,-73.545106 -73.54512,-73.545106 -2.6148,0 -5.19043,0.139979 -7.73245,0.408732 L 423.87867,-206.55849 H -5.3985778 L 95.476077,91.113041 A 73.679494,73.679494 0 0 0 91.00514,90.967459 c -40.616388,0 -73.545102,32.923131 -73.545102,73.545121 0,32.83074 21.517603,60.62783 51.212807,70.08482 -15.683278,27.16719 -35.420345,51.63837 -57.828228,72.78083 -30.47069,28.74334 -65.342327,50.54092 -103.058344,63.97052 -44.905343,-23.06857 -66.109413,-74.37097 -46.977043,-119.35192 2.16128,-5.08125 4.36736,-10.22968 6.47544,-15.35573 32.53118,-7.59247 56.775595,-36.75576 56.775595,-71.60219 0,-40.6192 -32.928725,-73.545126 -73.547905,-73.545126 -40.61919,0 -73.54512,32.925926 -73.54512,73.545126 0,24.9079 12.39097,46.90985 31.33576,60.21348 -18.2029,41.44507 -44.96134,84.82185 -53.29851,135.094 -9.99171,60.24707 -0.0336,124.20081 52.0751,160.31826 121.356427,84.11074 253.088114,-52.14228 391.98116,-86.39521 50.33655,-12.41056 105.59196,-10.41166 149.9402,-36.09505 33.30388,-19.28915 55.26103,-51.25761 61.4901,-87.14549 6.15909,-35.45396 -2.81638,-70.75393 -23.45493,-99.3769 a 73.231559,73.231559 0 0 0 17.10547,-47.14223"
     fill="#99425b"
     id="path1"
     style="stroke-width:2.79958" />
  <path
     d="m 392.79487,307.95495 c -5.4088,31.15938 -24.65315,58.37416 -52.79459,74.67614 -26.23491,15.19335 -57.67146,19.72867 -90.95853,24.52717 -17.83056,2.57001 -36.26864,5.23242 -54.28116,9.67256 -47.62655,11.74426 -93.75813,34.65888 -138.366727,56.81759 -89.278772,44.34543 -166.379363,82.63816 -239.078993,32.25122 -53.25371,-36.90693 -50.79568,-105.19443 -44.5918,-142.61367 5.75035,-34.67007 21.29645,-66.59935 36.32742,-97.47597 a 2230.2086,2230.2086 0 0 0 7.62048,-15.77287 90.854951,90.854951 0 0 0 23.6369,5.92952 c -15.30254,50.50173 8.7627,105.4128 59.27002,131.35935 l 6.91498,3.55267 7.318109,-2.60641 C -46.25853,374.05036 -9.4635769,351.23374 23.171193,320.4411 44.266059,300.53885 62.404573,278.52011 77.312367,254.99239 a 91.826407,91.826407 0 0 0 13.692773,1.02745 c 46.35834,0 84.74626,-34.65607 90.68697,-79.41584 18.9756,-0.69431 39.12982,-0.6999 58.2146,-0.006 5.93511,44.76537 44.32863,79.42424 90.68697,79.42424 19.38433,0 37.36326,-6.0751 52.17587,-16.39437 10.28288,21.05008 14.12111,44.73458 10.02532,68.32668 z M -149.48485,109.45593 c 30.64987,0 55.582976,24.9359 55.582976,55.58577 0,11.00797 -3.230726,21.27405 -8.776706,29.91918 -9.23863,14.40947 -24.9443,24.28639 -42.98763,25.51822 -1.26262,0.084 -2.53643,0.14558 -3.81864,0.14558 -6.83098,0 -13.37361,-1.24582 -19.42352,-3.50789 a 55.899325,55.899325 0 0 1 -28.84973,-24.57195 55.221826,55.221826 0 0 1 -7.31252,-27.50314 c 0,-30.64987 24.93592,-55.58577 55.58577,-55.58577 z m 184.909828,55.05665 c 0,-27.84748 20.585342,-50.96925 47.332583,-54.96707 2.693201,-0.40594 5.447994,-0.6159 8.250378,-0.6159 17.819361,0 33.684611,8.44075 43.858301,21.52041 a 55.655761,55.655761 0 0 1 6.48944,10.54044 55.235824,55.235824 0 0 1 5.23523,23.52212 c 0,4.44293 -0.53751,8.7627 -1.52577,12.90609 -5.41719,22.67664 -24.75393,40.01168 -48.44963,42.39693 -1.842128,0.18476 -3.712251,0.27996 -5.607571,0.27996 a 55.247022,55.247022 0 0 1 -30.123541,-8.90548 c -15.302534,-9.91334 -25.45942,-27.12799 -25.45942,-46.6775 z M 267.41263,98.414354 a 91.605239,91.605239 0 0 0 -25.17107,42.321346 853.29129,853.29129 0 0 0 -62.8731,0 C 174.66516,123.28869 164.917,107.89656 151.80094,96.205484 L 209.31843,-20.094899 Z M 19.654913,-188.59075 H 398.82238 L 309.26644,75.536149 a 90.927739,90.927739 0 0 0 -11.34112,3.513479 L 209.45841,-101.42005 120.73954,77.971784 A 90.99213,90.99213 0 0 0 108.90849,74.78306 Z M 386.17665,164.51538 c 0,5.57117 -0.83147,10.95197 -2.36285,16.03323 a 55.80414,55.80414 0 0 1 -21.42523,29.52163 55.26382,55.26382 0 0 1 -31.79489,10.02811 c -25.6638,0 -47.313,-17.489 -53.67926,-41.1735 a 55.440193,55.440193 0 0 1 -1.90372,-14.40947 c 0,-7.59807 1.53418,-14.84341 4.30576,-21.44483 a 55.566175,55.566175 0 0 1 5.25763,-9.63617 c 10.00292,-14.76502 26.88163,-24.50197 46.01959,-24.50197 1.75534,0 3.48548,0.0896 5.20162,0.25196 28.21983,2.62881 50.38415,26.43369 50.38415,55.33101 z m 35.92708,0 c 0,-44.67579 -32.18963,-81.952273 -74.58655,-89.914301 L 448.93496,-224.52064 H -30.45207 L 71.122482,75.205792 c -40.92433,9.107055 -71.6217848,45.678038 -71.6217848,89.306788 0,32.76075 17.3126358,61.53489 43.2591848,77.7053 -12.480541,18.59485 -27.27915,36.09226 -44.23904,52.09469 -26.898419,25.37265 -56.862383,44.617 -89.166797,57.27952 -32.539585,-20.43977 -46.293945,-58.98727 -32.010465,-92.5655 l 1.11983,-2.63161 2.09969,-4.93846 c 35.739515,-12.46656 61.459306,-46.48153 61.459306,-86.41482 0,-50.45973 -41.050327,-91.510055 -91.507256,-91.510055 -50.45693,0 -91.51284,41.050325 -91.51284,91.510055 0,25.46784 10.47044,48.53082 27.31835,65.13796 a 1547.4149,1547.4149 0 0 1 -9.56899,19.90505 c -15.40612,31.63812 -32.86433,67.49801 -39.46855,107.32212 -13.11326,79.08828 8.04041,142.31132 59.56677,178.02004 31.26578,21.66879 63.01868,30.19072 94.97035,30.19072 60.163091,0 121.026081,-30.22712 180.553657,-59.79635 42.870063,-21.29084 87.201503,-43.30958 130.989823,-54.11038 16.29358,-4.01741 33.0575,-6.43625 50.80687,-8.99507 35.19919,-5.07845 71.59381,-10.32767 103.83383,-28.9981 37.37166,-21.64641 62.95149,-57.95702 70.18562,-99.61485 6.20947,-35.76471 -1.26262,-71.5854 -19.48792,-101.96651 a 90.952936,90.952936 0 0 0 13.40161,-47.62375 z"
     fill="#ffffff"
     id="path2"
     style="stroke-width:2.79958" />
</svg>
