<?xml version="1.0" encoding="UTF-8" standalone="no"?>
<!-- Created with Inkscape (http://www.inkscape.org/) -->

<svg
   width="224.798mm"
   height="103mm"
   viewBox="0 0 849.63105 389.2911"
   version="1.1"
   id="svg1"
   inkscape:version="1.3.2 (091e20e, 2023-11-25, custom)"
   sodipodi:docname="portfolio.svg"
   xmlns:inkscape="http://www.inkscape.org/namespaces/inkscape"
   xmlns:sodipodi="http://sodipodi.sourceforge.net/DTD/sodipodi-0.dtd"
   xmlns="http://www.w3.org/2000/svg"
   xmlns:svg="http://www.w3.org/2000/svg">
  <sodipodi:namedview
     id="namedview1"
     pagecolor="#ffffff"
     bordercolor="#000000"
     borderopacity="0.25"
     inkscape:showpageshadow="2"
     inkscape:pageopacity="0.0"
     inkscape:pagecheckerboard="0"
     inkscape:deskcolor="#d1d1d1"
     inkscape:document-units="mm"
     inkscape:zoom="8.6678118"
     inkscape:cx="800.72113"
     inkscape:cy="127.3101"
     inkscape:window-width="1920"
     inkscape:window-height="1017"
     inkscape:window-x="-8"
     inkscape:window-y="-8"
     inkscape:window-maximized="1"
     inkscape:current-layer="layer1" />
  <defs
     id="defs1">
    <rect
       x="9.1367884"
       y="123.99927"
       width="1025.9308"
       height="216.67239"
       id="rect4" />
    <rect
       x="88.75737"
       y="148.79912"
       width="892.79474"
       height="194.48306"
       id="rect3" />
    <rect
       x="57.43124"
       y="133.13606"
       width="913.67883"
       height="455.53415"
       id="rect1" />
  </defs>
  <g
     inkscape:label="Capa 1"
     inkscape:groupmode="layer"
     id="layer1">
    <g
       id="g2">
      <path
         id="text2"
         style="font-weight:bold;font-size:145.333px;line-height:6.2;font-family:inter;-inkscape-font-specification:'inter Bold';text-align:center;text-anchor:middle;fill:none;stroke:#ffffff;stroke-width:2;stroke-linejoin:bevel;paint-order:fill markers stroke"
         d="M 4.4179727,56.706781 V 162.44125 H 25.919945 v -49.88676 c 0,-2.6493 -0.04796,-5.98462 -0.142578,-10.00587 -0.09462,-4.068565 -0.211589,-8.39738 -0.353516,-12.986341 -0.09462,-4.636268 -0.190539,-9.08401 -0.285156,-13.341808 1.23003,4.730886 2.507386,9.439481 3.832034,14.123059 1.324649,4.63627 2.555997,8.892171 3.69141,12.7715 1.182721,3.87933 2.17622,7.02671 2.980471,9.43946 l 17.810563,49.88676 h 18.238298 l 17.52736,-49.88676 c 0.851559,-2.50737 1.868062,-5.74872 3.050784,-9.72267 1.182722,-4.021251 2.41407,-8.421032 3.691409,-13.199228 1.324648,-4.778196 2.577047,-9.532797 3.759769,-14.263685 -0.04731,4.447035 -0.141277,9.036704 -0.283203,13.767591 -0.09462,4.730887 -0.213543,9.153672 -0.355469,13.269542 -0.09462,4.11587 -0.140625,7.49915 -0.140625,10.14845 v 49.88676 H 120.72667 V 56.706781 H 87.373126 L 70.484439,105.24393 c -0.709634,2.27083 -1.513243,5.20532 -2.412112,8.80079 -0.898868,3.59548 -1.821403,7.47355 -2.767581,11.63673 -0.946177,4.11587 -1.822705,8.06687 -2.626955,11.85158 -0.804251,-3.83202 -1.701829,-7.80601 -2.695315,-11.92189 -0.946177,-4.16318 -1.868712,-8.04321 -2.767581,-11.63868 -0.898868,-3.59548 -1.702478,-6.50501 -2.412111,-8.72853 L 37.62894,56.706781 Z M 133.9259,83.105242 l 29.80472,79.548898 -0.56836,4.25782 c -0.47309,3.97394 -2.08031,6.62262 -4.82423,7.94727 -2.74391,1.37195 -6.26912,1.46788 -10.57422,0.28516 l -2.62501,-0.63867 -4.89649,16.03712 c 1.51389,0.61502 3.50088,1.11177 5.96095,1.49024 2.46005,0.42577 5.10874,0.63867 7.94727,0.63867 7.94789,0 14.16974,-1.89303 18.66408,-5.67774 4.54165,-3.7374 8.0189,-8.79886 10.43165,-15.18556 l 33.70706,-88.703208 h -22.35353 l -13.90822,41.158238 c -1.13541,3.40624 -2.17687,6.83552 -3.12305,10.28907 -0.89887,3.40624 -1.77344,6.88348 -2.625,10.43165 -0.75694,-3.50085 -1.51455,-6.95509 -2.27149,-10.36133 -0.75695,-3.45355 -1.67947,-6.90584 -2.76758,-10.35939 L 156.56264,83.105242 Z M 489.70357,204.9491 c -3.21701,0 -5.9616,1.06447 -8.23243,3.19336 -2.27083,2.12891 -3.40626,4.70858 -3.40626,7.73634 0,3.02777 1.13543,5.60548 3.40626,7.73438 2.27083,2.1289 5.01542,3.19336 8.23243,3.19336 3.217,0 5.9616,-1.06446 8.23243,-3.19336 2.31813,-2.1289 3.47656,-4.70661 3.47656,-7.73438 0,-3.02776 -1.15843,-5.60743 -3.47656,-7.73634 -2.27083,-2.12889 -5.01543,-3.19336 -8.23243,-3.19336 z m -161.79702,0.85157 c -7.33288,0 -13.45881,2.10592 -18.37893,6.31641 -4.92012,4.21049 -7.38086,10.5263 -7.38086,18.94728 v 6.10352 h -13.97853 v 16.25002 h 13.97853 v 63.08599 h 21.21877 V 253.4179 h 16.60548 v -16.25002 h -16.60548 v -5.39453 c 0,-2.79123 0.66167,-4.94316 1.98633,-6.45704 1.32464,-1.56119 3.62046,-2.3418 6.88477,-2.3418 1.37196,0 2.67231,0.11892 3.90235,0.35547 1.27733,0.23654 2.3418,0.47244 3.19336,0.70898 l 3.83203,-16.03712 c -1.32464,-0.42578 -3.3596,-0.89952 -6.10352,-1.41992 -2.74391,-0.5204 -5.79537,-0.78125 -9.1543,-0.78125 z M 3.6757846,210.76942 V 316.50389 H 25.320335 v -34.55862 h 19.087908 c 8.089817,0 14.996348,-1.49025 20.720722,-4.47071 5.724373,-3.02777 10.078147,-7.19165 13.058606,-12.49025 3.027767,-5.3459 4.541019,-11.51979 4.541019,-18.5215 0,-6.9544 -1.490248,-13.10333 -4.470707,-18.44923 -2.93315,-5.39322 -7.214006,-9.60506 -12.843761,-12.63283 -5.629755,-3.07507 -12.467277,-4.61133 -20.509785,-4.61133 z m 435.9984454,0 v 105.73447 h 21.28908 V 210.76942 Z m -189.11736,7.52149 v 18.87697 h -10.92775 v 16.25002 h 10.92775 v 41.7266 c 0,7.28556 2.10592,12.86678 6.31641,16.74611 4.21049,3.83201 10.28845,5.74805 18.23634,5.74805 2.1289,0 4.35375,-0.14193 6.67188,-0.42578 2.36545,-0.28386 4.73027,-0.78061 7.09571,-1.49024 l -3.05078,-15.96681 c -0.80425,0.18923 -1.93967,0.40212 -3.40625,0.63867 -1.41927,0.18924 -2.53169,0.28516 -3.33594,0.28516 -4.82551,0 -7.23829,-2.46074 -7.23829,-7.38087 V 253.4179 h 14.83204 V 237.16788 H 271.84595 V 218.29091 Z M 25.320335,228.65225 h 15.539077 c 6.670551,0 11.592037,1.63218 14.761732,4.89649 3.169694,3.26431 4.753911,7.56817 4.753911,12.91407 0,5.29859 -1.584217,9.62741 -4.753911,12.98634 -3.169695,3.35893 -8.066225,5.03907 -14.689466,5.03907 H 25.320335 Z m 200.541195,7.45118 c -4.44703,0 -8.39607,1.27735 -11.84962,3.83203 -3.40624,2.50737 -5.84398,6.19556 -7.31055,11.06837 h -0.85156 v -13.83595 h -20.57815 v 79.33601 h 21.28908 v -45.13285 c 0,-4.92012 1.58422,-8.91712 4.75391,-11.9922 3.21701,-3.07508 7.28497,-4.61329 12.20509,-4.61329 1.56119,0 3.24133,0.11893 5.03907,0.35547 1.84504,0.18924 3.23937,0.42513 4.18555,0.70899 v -19.0176 c -2.17621,-0.47309 -4.47007,-0.70898 -6.88282,-0.70898 z m -94.23836,0.0703 c -7.9479,0 -14.83142,1.72615 -20.65041,5.17969 -5.81899,3.40625 -10.3147,8.18385 -13.484391,14.334 -3.122385,6.15015 -4.683598,13.31753 -4.683598,21.50197 0,8.13713 1.561213,15.28151 4.683598,21.43166 3.169691,6.10284 7.665401,10.88045 13.484391,14.334 5.81899,3.40624 12.70251,5.10938 20.65041,5.10938 7.94788,0 14.83141,-1.70314 20.6504,-5.10938 5.81899,-3.45355 10.28974,-8.23116 13.41213,-14.334 3.16969,-6.15015 4.75391,-13.29453 4.75391,-21.43166 0,-8.18444 -1.58422,-15.35182 -4.75391,-21.50197 -3.12239,-6.15015 -7.59314,-10.92775 -13.41213,-14.334 -5.81899,-3.45354 -12.70252,-5.17969 -20.6504,-5.17969 z m 254.40257,0 c -7.94789,0 -14.83142,1.72615 -20.65041,5.17969 -5.81899,3.40625 -10.31274,8.18385 -13.48243,14.334 -3.12239,6.15015 -4.6836,13.31753 -4.6836,21.50197 0,8.13713 1.56121,15.28151 4.6836,21.43166 3.16969,6.10284 7.66344,10.88045 13.48243,14.334 5.81899,3.40624 12.70252,5.10938 20.65041,5.10938 7.94789,0 14.83142,-1.70314 20.65041,-5.10938 5.81899,-3.45355 10.28974,-8.23116 13.41212,-14.334 3.16969,-6.15015 4.75586,-13.29453 4.75586,-21.43166 0,-8.18444 -1.58617,-15.35182 -4.75586,-21.50197 -3.12238,-6.15015 -7.59313,-10.92775 -13.41212,-14.334 -5.81899,-3.45354 -12.70252,-5.17969 -20.65041,-5.17969 z m 167.90054,0 c -7.94789,0 -14.83142,1.72615 -20.65041,5.17969 -5.81899,3.40625 -10.31469,8.18385 -13.48439,14.334 -3.12238,6.15015 -4.68359,13.31753 -4.68359,21.50197 0,8.13713 1.56121,15.28151 4.68359,21.43166 3.1697,6.10284 7.6654,10.88045 13.48439,14.334 5.81899,3.40624 12.70252,5.10938 20.65041,5.10938 7.94789,0 14.83142,-1.70314 20.65041,-5.10938 5.81899,-3.45355 10.28974,-8.23116 13.41212,-14.334 3.1697,-6.15015 4.75391,-13.29453 4.75391,-21.43166 0,-8.18444 -1.58421,-15.35182 -4.75391,-21.50197 -3.12238,-6.15015 -7.59313,-10.92775 -13.41212,-14.334 -5.81899,-3.45354 -12.70252,-5.17969 -20.65041,-5.17969 z m -74.86725,0.99414 v 79.33601 h 21.28908 v -79.33601 z m -347.43586,15.75197 c 5.67706,0 9.95791,2.29581 12.84376,6.88477 2.88583,4.54165 4.32813,10.31276 4.32813,17.31447 0,6.95441 -1.4423,12.72551 -4.32813,17.31447 -2.88585,4.58896 -7.1667,6.88477 -12.84376,6.88477 -5.67707,0 -9.95988,-2.29581 -12.84572,-6.88477 -2.83854,-4.58896 -4.25782,-10.36006 -4.25782,-17.31447 0,-7.00171 1.41928,-12.77282 4.25782,-17.31447 2.88584,-4.58896 7.16865,-6.88477 12.84572,-6.88477 z m 254.40257,0 c 5.67706,0 9.95987,2.29581 12.84571,6.88477 2.88585,4.54165 4.32813,10.31276 4.32813,17.31447 0,6.95441 -1.44228,12.72551 -4.32813,17.31447 -2.88584,4.58896 -7.16865,6.88477 -12.84571,6.88477 -5.67707,0 -9.95793,-2.29581 -12.84376,-6.88477 -2.83853,-4.58896 -4.25782,-10.36006 -4.25782,-17.31447 0,-7.00171 1.41929,-12.77282 4.25782,-17.31447 2.88583,-4.58896 7.16669,-6.88477 12.84376,-6.88477 z m 167.90054,0 c 5.67707,0 9.95793,2.29581 12.84376,6.88477 2.88585,4.54165 4.32813,10.31276 4.32813,17.31447 0,6.95441 -1.44228,12.72551 -4.32813,17.31447 -2.88583,4.58896 -7.16669,6.88477 -12.84376,6.88477 -5.67706,0 -9.95987,-2.29581 -12.84571,-6.88477 -2.83853,-4.58896 -4.25782,-10.36006 -4.25782,-17.31447 0,-7.00171 1.41929,-12.77282 4.25782,-17.31447 2.88584,-4.58896 7.16865,-6.88477 12.84571,-6.88477 z" />
    </g>
    <g
       id="g1"
       transform="matrix(0.96687542,0,0,0.2910683,8.0057071,82.545009)"
       style="fill:#ffffff;fill-opacity:1;stroke:none">
      <rect
         style="fill:#ffffff;fill-opacity:1;stroke:none;stroke-width:3.8335;stroke-linejoin:bevel;stroke-opacity:1;paint-order:fill markers stroke"
         id="rect13"
         width="596.60339"
         height="7.4902987"
         x="273.97244"
         y="116.91996" />
    </g>
  </g>
</svg>
