<?xml version="1.0" encoding="UTF-8" standalone="no"?>
<svg
   height="1445"
   viewBox="-0.1 1.1 276.60528 177.3454"
   width="2268"
   version="1.1"
   id="svg3"
   sodipodi:docname="aws.svg"
   inkscape:version="1.3.2 (091e20e, 2023-11-25, custom)"
   xmlns:inkscape="http://www.inkscape.org/namespaces/inkscape"
   xmlns:sodipodi="http://sodipodi.sourceforge.net/DTD/sodipodi-0.dtd"
   xmlns="http://www.w3.org/2000/svg"
   xmlns:svg="http://www.w3.org/2000/svg">
  <defs
     id="defs3" />
  <sodipodi:namedview
     id="namedview3"
     pagecolor="#ffffff"
     bordercolor="#000000"
     borderopacity="0.25"
     inkscape:showpageshadow="2"
     inkscape:pageopacity="0.0"
     inkscape:pagecheckerboard="0"
     inkscape:deskcolor="#d1d1d1"
     inkscape:zoom="0.3224"
     inkscape:cx="1250"
     inkscape:cy="733.56079"
     inkscape:window-width="1920"
     inkscape:window-height="1017"
     inkscape:window-x="-8"
     inkscape:window-y="-8"
     inkscape:window-maximized="1"
     inkscape:current-layer="svg3" />
  <path
     d="m 77.603155,59.620579 c 0,3.315868 0.358472,6.004409 0.985798,7.976006 0.716945,1.971597 1.613125,4.12243 2.867778,6.452499 0.44809,0.716944 0.627326,1.433888 0.627326,2.061214 0,0.896181 -0.537708,1.792361 -1.702743,2.688542 l -5.645936,3.763957 c -0.806563,0.537708 -1.613125,0.806563 -2.330069,0.806563 -0.896181,0 -1.792361,-0.448091 -2.688542,-1.254653 -1.254652,-1.344271 -2.330069,-2.778159 -3.226249,-4.212048 -0.89618,-1.523506 -1.792361,-3.226249 -2.778159,-5.287464 -6.990207,8.24486 -15.772775,12.367289 -26.347704,12.367289 -7.527915,0 -13.532323,-2.150833 -17.923607,-6.452498 -4.391284,-4.301666 -6.631735,-10.037221 -6.631735,-17.206664 0,-7.617533 2.688541,-13.801178 8.155241,-18.461316 5.466701,-4.660138 12.725762,-6.990207 21.95642,-6.990207 3.047013,0 6.183645,0.268854 9.499512,0.716944 3.315867,0.448091 6.721353,1.165035 10.306074,1.971597 v -6.542117 c 0,-6.810971 -1.433888,-11.560727 -4.212047,-14.338886 -2.867778,-2.778159 -7.707152,-4.12243 -14.607741,-4.12243 -3.136631,0 -6.36288,0.358473 -9.678748,1.165035 -3.315867,0.806562 -6.542117,1.792361 -9.678748,3.047013 -1.433889,0.627326 -2.509305,0.985799 -3.136631,1.165035 -0.627327,0.179236 -1.075417,0.268854 -1.433889,0.268854 -1.254653,0 -1.881979,-0.896181 -1.881979,-2.778159 v -4.391284 c 0,-1.433889 0.179236,-2.5093054 0.627326,-3.1366316 0.448091,-0.6273263 1.254653,-1.2546526 2.509305,-1.8819788 3.136632,-1.6131247 6.900589,-2.9573953 11.291873,-4.0328118 4.391284,-1.1650345 9.051422,-1.7027427 13.980414,-1.7027427 10.664547,0 18.461316,2.419687 23.479927,7.2590611 4.928992,4.8393738 7.438297,12.1880528 7.438297,22.0460378 V 59.620579 Z M 41.218231,73.242521 c 2.957395,0 6.004409,-0.537708 9.230658,-1.613124 3.226249,-1.075417 6.094027,-3.047014 8.513714,-5.735555 1.433888,-1.702743 2.509305,-3.584722 3.047013,-5.735554 0.537708,-2.150833 0.89618,-4.749756 0.89618,-7.79677 V 48.597561 C 60.306873,47.970234 57.528714,47.432526 54.660937,47.074054 51.79316,46.715582 49.015,46.536346 46.236841,46.536346 c -6.004408,0 -10.395692,1.165034 -13.353088,3.584721 -2.957395,2.419687 -4.391283,5.825173 -4.391283,10.306075 0,4.212047 1.075416,7.348679 3.315867,9.499512 2.150833,2.240451 5.287464,3.315867 9.409894,3.315867 z m 71.963289,9.678748 c -1.61313,0 -2.68854,-0.268854 -3.40549,-0.89618 -0.71694,-0.537708 -1.34427,-1.792361 -1.88198,-3.495103 L 86.833813,9.2552415 C 86.296105,7.4628808 86.02725,6.2978462 86.02725,5.67052 c 0,-1.4338886 0.716945,-2.240451 2.150833,-2.240451 h 8.782568 c 1.702743,0 2.867777,0.2688541 3.495099,0.8961804 0.71695,0.5377082 1.25466,1.7923608 1.79237,3.4951035 L 117.30395,67.148495 131.28436,7.8213529 c 0.44809,-1.7923608 0.9858,-2.9573953 1.70274,-3.4951035 0.71695,-0.5377082 1.9716,-0.8961804 3.58472,-0.8961804 h 7.16945 c 1.70274,0 2.86777,0.2688541 3.58472,0.8961804 0.71694,0.5377082 1.34427,1.7923608 1.70274,3.4951035 L 163.18838,67.865439 178.6923,7.8213529 c 0.53771,-1.7923608 1.16504,-2.9573953 1.79236,-3.4951035 0.71695,-0.5377082 1.88198,-0.8961804 3.49511,-0.8961804 h 8.33447 c 1.43389,0 2.24046,0.7169443 2.24046,2.240451 0,0.4480902 -0.0896,0.8961804 -0.17924,1.4338886 -0.0896,0.5377082 -0.26885,1.2546525 -0.62733,2.240451 L 172.15019,78.619604 c -0.53771,1.79236 -1.16504,2.957395 -1.88198,3.495103 -0.71695,0.537708 -1.88198,0.89618 -3.40549,0.89618 h -7.70715 c -1.70274,0 -2.86778,-0.268854 -3.58472,-0.89618 -0.71695,-0.627326 -1.34427,-1.792361 -1.70274,-3.584721 L 139.97731,20.72635 126.17613,78.440367 c -0.44809,1.792361 -0.9858,2.957396 -1.70274,3.584722 -0.71695,0.627326 -1.9716,0.89618 -3.58472,0.89618 z m 115.15918,2.419687 c -4.66014,0 -9.32028,-0.537708 -13.80118,-1.613124 -4.4809,-1.075417 -7.97601,-2.240451 -10.30608,-3.584722 -1.43388,-0.806562 -2.41968,-1.702743 -2.77816,-2.509305 -0.35847,-0.806562 -0.5377,-1.702743 -0.5377,-2.509305 v -4.57052 c 0,-1.881979 0.71694,-2.778159 2.06121,-2.778159 0.53771,0 1.07542,0.08962 1.61313,0.268854 0.5377,0.179236 1.34427,0.537708 2.24045,0.89618 3.04701,1.344271 6.36288,2.419687 9.85798,3.136632 3.58472,0.716944 7.07983,1.075416 10.66455,1.075416 5.64593,0 10.03722,-0.985798 13.08423,-2.957395 3.04701,-1.971597 4.66014,-4.839374 4.66014,-8.513714 0,-2.509305 -0.80656,-4.57052 -2.41969,-6.273262 -1.61312,-1.702743 -4.66014,-3.22625 -9.05142,-4.660139 l -12.99462,-4.032811 c -6.54211,-2.061215 -11.38149,-5.108228 -14.33888,-9.14104 -2.9574,-3.943194 -4.4809,-8.334478 -4.4809,-12.994616 0,-3.763957 0.80656,-7.079825 2.41968,-9.947602 1.61313,-2.867777 3.76396,-5.3770825 6.4525,-7.3486793 2.68854,-2.0612149 5.73556,-3.5847216 9.32028,-4.660138 C 223.59094,1.5480902 227.3549,1.1 231.29809,1.1 c 1.9716,0 4.03281,0.089618 6.00441,0.3584722 2.06121,0.2688541 3.94319,0.6273262 5.82517,0.9857984 1.79236,0.4480902 3.49511,0.8961804 5.10823,1.4338886 1.61313,0.5377082 2.86778,1.0754165 3.76396,1.6131247 1.25465,0.7169443 2.15083,1.4338886 2.68854,2.240451 0.53771,0.7169443 0.80656,1.7027427 0.80656,2.9573951 v 4.212048 c 0,1.881979 -0.71694,2.867777 -2.06121,2.867777 -0.71695,0 -1.88198,-0.358472 -3.40549,-1.075416 -5.10823,-2.330069 -10.84378,-3.495104 -17.20666,-3.495104 -5.10823,0 -9.14104,0.806563 -11.9192,2.509305 -2.77816,1.702743 -4.21205,4.301666 -4.21205,7.976006 0,2.509305 0.89618,4.660138 2.68854,6.362881 1.79236,1.702742 5.10823,3.405485 9.85799,4.928992 l 12.72576,4.032811 c 6.4525,2.061215 11.11263,4.928993 13.89079,8.603332 2.77816,3.67434 4.12243,7.886388 4.12243,12.546526 0,3.853575 -0.80656,7.348679 -2.33007,10.395692 -1.61312,3.047013 -3.76395,5.735555 -6.54211,7.886387 -2.77816,2.240451 -6.09403,3.853576 -9.9476,5.018611 -4.03282,1.254652 -8.24486,1.881978 -12.81538,1.881978 z"
     fill="#252f3e"
     id="path1"
     style="fill:#ffffff;stroke-width:0.89618" />
  <g
     clip-rule="evenodd"
     fill="#ff9900"
     fill-rule="evenodd"
     id="g3"
     transform="matrix(0.89618039,0,0,0.89618039,0.17316934,0.11420157)">
    <path
       d="M 273.5,143.7 C 240.6,168 192.8,180.9 151.7,180.9 94.1,180.9 42.2,159.6 3,124.2 c -3.1,-2.8 -0.3,-6.6 3.4,-4.4 42.4,24.6 94.7,39.5 148.8,39.5 36.5,0 76.6,-7.6 113.5,-23.2 5.5,-2.5 10.2,3.6 4.8,7.6 z"
       id="path2" />
    <path
       d="m 287.2,128.1 c -4.2,-5.4 -27.8,-2.6 -38.5,-1.3 -3.2,0.4 -3.7,-2.4 -0.8,-4.5 18.8,-13.2 49.7,-9.4 53.3,-5 3.6,4.5 -1,35.4 -18.6,50.2 -2.7,2.3 -5.3,1.1 -4.1,-1.9 4,-9.9 12.9,-32.2 8.7,-37.5 z"
       id="path3" />
  </g>
</svg>
